{
    "asset" : {
        "generator" : "Khronos glTF Blender I/O v1.2.75",
        "version" : "2.0"
    },
    "extensionsUsed" : [
        "KHR_materials_clearcoat"
    ],
    "scene" : 0,
    "scenes" : [
        {
            "name" : "Scene",
            "nodes" : [
                0,
                1,
                2
            ]
        }
    ],
    "nodes" : [
        {
            "name" : "Light",
            "rotation" : [
                0.7256678342819214,
                0.18817123770713806,
                -0.6606783270835876,
                0.03875410556793213
            ],
            "scale" : [
                0.18818271160125732,
                0.18818271160125732,
                0.18818271160125732
            ],
            "translation" : [
                0.051105499267578125,
                1.0536245107650757,
                6.653826713562012
            ]
        },
        {
            "mesh" : 0,
            "name" : "Cylinder",
            "rotation" : [
                0,
                0.7071067690849304,
                0,
                -0.7071067690849304
            ],
            "scale" : [
                1,
                0.4866516590118408,
                1
            ],
            "translation" : [
                0,
                0.5087471008300781,
                0
            ]
        },
        {
            "name" : "Camera",
            "rotation" : [
                0.5,
                0.5,
                -0.5,
                0.4999999701976776
            ],
            "translation" : [
                20.38603973388672,
                2.0060975551605225,
                0
            ]
        }
    ],
    "animations" : [
        {
            "channels" : [
                {
                    "sampler" : 0,
                    "target" : {
                        "node" : 0,
                        "path" : "translation"
                    }
                },
                {
                    "sampler" : 1,
                    "target" : {
                        "node" : 0,
                        "path" : "rotation"
                    }
                },
                {
                    "sampler" : 2,
                    "target" : {
                        "node" : 0,
                        "path" : "scale"
                    }
                }
            ],
            "name" : "LightAction.002",
            "samplers" : [
                {
                    "input" : 16,
                    "interpolation" : "STEP",
                    "output" : 17
                },
                {
                    "input" : 16,
                    "interpolation" : "STEP",
                    "output" : 18
                },
                {
                    "input" : 16,
                    "interpolation" : "STEP",
                    "output" : 19
                }
            ]
        },
        {
            "channels" : [
                {
                    "sampler" : 0,
                    "target" : {
                        "node" : 1,
                        "path" : "translation"
                    }
                },
                {
                    "sampler" : 1,
                    "target" : {
                        "node" : 1,
                        "path" : "rotation"
                    }
                },
                {
                    "sampler" : 2,
                    "target" : {
                        "node" : 1,
                        "path" : "scale"
                    }
                }
            ],
            "name" : "CylinderAction.001",
            "samplers" : [
                {
                    "input" : 20,
                    "interpolation" : "LINEAR",
                    "output" : 21
                },
                {
                    "input" : 20,
                    "interpolation" : "LINEAR",
                    "output" : 22
                },
                {
                    "input" : 20,
                    "interpolation" : "LINEAR",
                    "output" : 23
                }
            ]
        },
        {
            "channels" : [
                {
                    "sampler" : 0,
                    "target" : {
                        "node" : 2,
                        "path" : "translation"
                    }
                },
                {
                    "sampler" : 1,
                    "target" : {
                        "node" : 2,
                        "path" : "rotation"
                    }
                },
                {
                    "sampler" : 2,
                    "target" : {
                        "node" : 2,
                        "path" : "scale"
                    }
                }
            ],
            "name" : "CameraAction.002",
            "samplers" : [
                {
                    "input" : 16,
                    "interpolation" : "STEP",
                    "output" : 24
                },
                {
                    "input" : 16,
                    "interpolation" : "STEP",
                    "output" : 25
                },
                {
                    "input" : 16,
                    "interpolation" : "STEP",
                    "output" : 26
                }
            ]
        }
    ],
    "materials" : [
        {
            "doubleSided" : true,
            "emissiveFactor" : [
                0,
                0,
                0
            ],
            "name" : "Material.001",
            "pbrMetallicRoughness" : {
                "baseColorFactor" : [
                    0.49240976572036743,
                    0.2330712080001831,
                    0.8000000715255737,
                    1
                ],
                "metallicFactor" : 1,
                "roughnessFactor" : 0.5
            }
        },
        {
            "doubleSided" : true,
            "emissiveFactor" : [
                0,
                0,
                0
            ],
            "name" : "Material.004",
            "pbrMetallicRoughness" : {
                "baseColorFactor" : [
                    0.8000000715255737,
                    0.7476139068603516,
                    0.6446030139923096,
                    1
                ],
                "metallicFactor" : 1,
                "roughnessFactor" : 0.5
            }
        },
        {
            "doubleSided" : true,
            "emissiveFactor" : [
                0,
                0,
                0
            ],
            "name" : "Material.003",
            "pbrMetallicRoughness" : {
                "baseColorFactor" : [
                    0.8000000715255737,
                    0.038412224501371384,
                    0.172846719622612,
                    1
                ],
                "metallicFactor" : 0,
                "roughnessFactor" : 0.5
            }
        },
        {
            "doubleSided" : true,
            "emissiveFactor" : [
                0,
                0,
                0
            ],
            "extensions" : {
                "KHR_materials_clearcoat" : {
                    "clearcoatFactor" : 1,
                    "clearcoatRoughnessFactor" : 0.029999999329447746
                }
            },
            "name" : "Material",
            "pbrMetallicRoughness" : {
                "baseColorFactor" : [
                    0.8000000715255737,
                    0.7936781644821167,
                    0.7748879194259644,
                    1
                ],
                "metallicFactor" : 0.3365384638309479,
                "roughnessFactor" : 0
            }
        }
    ],
    "meshes" : [
        {
            "name" : "Cylinder",
            "primitives" : [
                {
                    "attributes" : {
                        "POSITION" : 0,
                        "NORMAL" : 1,
                        "TEXCOORD_0" : 2
                    },
                    "indices" : 3,
                    "material" : 0
                },
                {
                    "attributes" : {
                        "POSITION" : 4,
                        "NORMAL" : 5,
                        "TEXCOORD_0" : 6
                    },
                    "indices" : 7,
                    "material" : 1
                },
                {
                    "attributes" : {
                        "POSITION" : 8,
                        "NORMAL" : 9,
                        "TEXCOORD_0" : 10
                    },
                    "indices" : 11,
                    "material" : 2
                },
                {
                    "attributes" : {
                        "POSITION" : 12,
                        "NORMAL" : 13,
                        "TEXCOORD_0" : 14
                    },
                    "indices" : 15,
                    "material" : 3
                }
            ]
        }
    ],
    "accessors" : [
        {
            "bufferView" : 0,
            "componentType" : 5126,
            "count" : 192,
            "max" : [
                1.2984567880630493,
                1.0000001192092896,
                1.2984569072723389
            ],
            "min" : [
                -1.2984567880630493,
                -1,
                -1.2984566688537598
            ],
            "type" : "VEC3"
        },
        {
            "bufferView" : 1,
            "componentType" : 5126,
            "count" : 192,
            "type" : "VEC3"
        },
        {
            "bufferView" : 2,
            "componentType" : 5126,
            "count" : 192,
            "type" : "VEC2"
        },
        {
            "bufferView" : 3,
            "componentType" : 5123,
            "count" : 372,
            "type" : "SCALAR"
        },
        {
            "bufferView" : 4,
            "componentType" : 5126,
            "count" : 1118,
            "max" : [
                1.3125734329223633,
                0.5388874411582947,
                0.1721680462360382
            ],
            "min" : [
                1.2479515075683594,
                0.4060984253883362,
                -0.1601586937904358
            ],
            "type" : "VEC3"
        },
        {
            "bufferView" : 5,
            "componentType" : 5126,
            "count" : 1118,
            "type" : "VEC3"
        },
        {
            "bufferView" : 6,
            "componentType" : 5126,
            "count" : 1118,
            "type" : "VEC2"
        },
        {
            "bufferView" : 7,
            "componentType" : 5123,
            "count" : 5760,
            "type" : "SCALAR"
        },
        {
            "bufferView" : 8,
            "componentType" : 5126,
            "count" : 7070,
            "max" : [
                1.383640170097351,
                6.477138996124268,
                1.3802809715270996
            ],
            "min" : [
                -1.4064136743545532,
                -0.15424756705760956,
                -1.3899791240692139
            ],
            "type" : "VEC3"
        },
        {
            "bufferView" : 9,
            "componentType" : 5126,
            "count" : 7070,
            "type" : "VEC3"
        },
        {
            "bufferView" : 10,
            "componentType" : 5126,
            "count" : 7070,
            "type" : "VEC2"
        },
        {
            "bufferView" : 11,
            "componentType" : 5123,
            "count" : 13248,
            "type" : "SCALAR"
        },
        {
            "bufferView" : 12,
            "componentType" : 5126,
            "count" : 1274,
            "max" : [
                1.2773597240447998,
                0.6846824288368225,
                0.24311944842338562
            ],
            "min" : [
                1.070834994316101,
                -0.04282127320766449,
                -0.23111005127429962
            ],
            "type" : "VEC3"
        },
        {
            "bufferView" : 13,
            "componentType" : 5126,
            "count" : 1274,
            "type" : "VEC3"
        },
        {
            "bufferView" : 14,
            "componentType" : 5126,
            "count" : 1274,
            "type" : "VEC2"
        },
        {
            "bufferView" : 15,
            "componentType" : 5123,
            "count" : 6336,
            "type" : "SCALAR"
        },
        {
            "bufferView" : 16,
            "componentType" : 5126,
            "count" : 1,
            "max" : [
                0
            ],
            "min" : [
                0
            ],
            "type" : "SCALAR"
        },
        {
            "bufferView" : 17,
            "componentType" : 5126,
            "count" : 1,
            "type" : "VEC3"
        },
        {
            "bufferView" : 18,
            "componentType" : 5126,
            "count" : 1,
            "type" : "VEC4"
        },
        {
            "bufferView" : 19,
            "componentType" : 5126,
            "count" : 1,
            "type" : "VEC3"
        },
        {
            "bufferView" : 20,
            "componentType" : 5126,
            "count" : 80,
            "max" : [
                3.3333333333333335
            ],
            "min" : [
                0.041666666666666664
            ],
            "type" : "SCALAR"
        },
        {
            "bufferView" : 21,
            "componentType" : 5126,
            "count" : 80,
            "type" : "VEC3"
        },
        {
            "bufferView" : 22,
            "componentType" : 5126,
            "count" : 80,
            "type" : "VEC4"
        },
        {
            "bufferView" : 23,
            "componentType" : 5126,
            "count" : 80,
            "type" : "VEC3"
        },
        {
            "bufferView" : 24,
            "componentType" : 5126,
            "count" : 1,
            "type" : "VEC3"
        },
        {
            "bufferView" : 25,
            "componentType" : 5126,
            "count" : 1,
            "type" : "VEC4"
        },
        {
            "bufferView" : 26,
            "componentType" : 5126,
            "count" : 1,
            "type" : "VEC3"
        }
    ],
    "bufferViews" : [
        {
            "buffer" : 0,
            "byteLength" : 2304,
            "byteOffset" : 0
        },
        {
            "buffer" : 0,
            "byteLength" : 2304,
            "byteOffset" : 2304
        },
        {
            "buffer" : 0,
            "byteLength" : 1536,
            "byteOffset" : 4608
        },
        {
            "buffer" : 0,
            "byteLength" : 744,
            "byteOffset" : 6144
        },
        {
            "buffer" : 0,
            "byteLength" : 13416,
            "byteOffset" : 6888
        },
        {
            "buffer" : 0,
            "byteLength" : 13416,
            "byteOffset" : 20304
        },
        {
            "buffer" : 0,
            "byteLength" : 8944,
            "byteOffset" : 33720
        },
        {
            "buffer" : 0,
            "byteLength" : 11520,
            "byteOffset" : 42664
        },
        {
            "buffer" : 0,
            "byteLength" : 84840,
            "byteOffset" : 54184
        },
        {
            "buffer" : 0,
            "byteLength" : 84840,
            "byteOffset" : 139024
        },
        {
            "buffer" : 0,
            "byteLength" : 56560,
            "byteOffset" : 223864
        },
        {
            "buffer" : 0,
            "byteLength" : 26496,
            "byteOffset" : 280424
        },
        {
            "buffer" : 0,
            "byteLength" : 15288,
            "byteOffset" : 306920
        },
        {
            "buffer" : 0,
            "byteLength" : 15288,
            "byteOffset" : 322208
        },
        {
            "buffer" : 0,
            "byteLength" : 10192,
            "byteOffset" : 337496
        },
        {
            "buffer" : 0,
            "byteLength" : 12672,
            "byteOffset" : 347688
        },
        {
            "buffer" : 0,
            "byteLength" : 4,
            "byteOffset" : 360360
        },
        {
            "buffer" : 0,
            "byteLength" : 12,
            "byteOffset" : 360364
        },
        {
            "buffer" : 0,
            "byteLength" : 16,
            "byteOffset" : 360376
        },
        {
            "buffer" : 0,
            "byteLength" : 12,
            "byteOffset" : 360392
        },
        {
            "buffer" : 0,
            "byteLength" : 320,
            "byteOffset" : 360404
        },
        {
            "buffer" : 0,
            "byteLength" : 960,
            "byteOffset" : 360724
        },
        {
            "buffer" : 0,
            "byteLength" : 1280,
            "byteOffset" : 361684
        },
        {
            "buffer" : 0,
            "byteLength" : 960,
            "byteOffset" : 362964
        },
        {
            "buffer" : 0,
            "byteLength" : 12,
            "byteOffset" : 363924
        },
        {
            "buffer" : 0,
            "byteLength" : 16,
            "byteOffset" : 363936
        },
        {
            "buffer" : 0,
            "byteLength" : 12,
            "byteOffset" : 363952
        }
    ],
    "buffers" : [
        {
            "byteLength" : 363964,
            "uri" : "data:application/octet-stream;base64,"
        }
    ]
}
